<svg xmlns="http://www.w3.org/2000/svg" width="15.009" height="13.508" viewBox="0 0 15.009 13.508">
  <g id="Group_4" data-name="Group 4" transform="translate(-887.243 399.763)">
    <g id="Icon_material-camera-alt" data-name="Icon material-camera-alt" transform="translate(884.243 -402.763)">
      <path id="Path_1" data-name="Path 1" d="M18,15.6a2.4,2.4,0,1,1-2.4-2.4A2.4,2.4,0,0,1,18,15.6Z" transform="translate(-5.097 -5.097)" fill="rgba(0,0,0,0.44)"/>
      <path id="Path_2" data-name="Path 2" d="M8.253,3,6.88,4.5H4.5A1.505,1.505,0,0,0,3,6v9.005a1.505,1.505,0,0,0,1.5,1.5H16.508a1.505,1.505,0,0,0,1.5-1.5V6a1.505,1.505,0,0,0-1.5-1.5H14.129L12.756,3ZM10.5,14.257A3.752,3.752,0,1,1,14.257,10.5,3.754,3.754,0,0,1,10.5,14.257Z" fill="rgba(0,0,0,0.44)"/>
    </g>
  </g>
</svg>
