<svg xmlns="http://www.w3.org/2000/svg" width="12.516" height="18.204" viewBox="0 0 12.516 18.204">
  <g id="Group_5" data-name="Group 5" transform="translate(-847.076 403)">
    <path id="Icon_awesome-microphone" data-name="Icon awesome-microphone" d="M6.258,12.516A3.413,3.413,0,0,0,9.671,9.1V3.413a3.413,3.413,0,1,0-6.827,0V9.1A3.413,3.413,0,0,0,6.258,12.516Zm5.689-5.689h-.569a.569.569,0,0,0-.569.569V9.1A4.556,4.556,0,0,1,5.8,13.631,4.689,4.689,0,0,1,1.707,8.9V7.4a.569.569,0,0,0-.569-.569H.569A.569.569,0,0,0,0,7.4V8.823a6.454,6.454,0,0,0,5.4,6.46V16.5H3.413a.569.569,0,0,0-.569.569v.569a.569.569,0,0,0,.569.569H9.1a.569.569,0,0,0,.569-.569v-.569A.569.569,0,0,0,9.1,16.5H7.111V15.3a6.264,6.264,0,0,0,5.4-6.195V7.4A.569.569,0,0,0,11.947,6.827Z" transform="translate(847.076 -403)" fill="#878787"/>
  </g>
</svg>
