<svg xmlns="http://www.w3.org/2000/svg" width="24.01" height="24" viewBox="0 0 24.01 24">
  <g id="Symbol_12_4" data-name="Symbol 12 – 4" transform="translate(0 0.002)">
    <rect id="Rectangle_548" data-name="Rectangle 548" width="24" height="24" transform="translate(0.01 -0.002)" fill="none"/>
    <path id="Path_2" data-name="Path 2" d="M45.6,21.465a13.875,13.875,0,0,0,14-14V6.8A10.838,10.838,0,0,0,62,4.267a11.068,11.068,0,0,1-2.8.8A5.187,5.187,0,0,0,61.332,2.4a12.229,12.229,0,0,1-3.066,1.2,4.761,4.761,0,0,0-3.6-1.6,5.009,5.009,0,0,0-4.933,4.933A2.6,2.6,0,0,0,49.866,8,13.784,13.784,0,0,1,39.733,2.8a5.106,5.106,0,0,0-.667,2.533A5.3,5.3,0,0,0,41.2,9.466,4.5,4.5,0,0,1,38.933,8.8h0a4.873,4.873,0,0,0,4,4.8,4.11,4.11,0,0,1-1.333.133,2.269,2.269,0,0,1-.933-.133,5.051,5.051,0,0,0,4.666,3.466A10.066,10.066,0,0,1,39.2,19.2a3.691,3.691,0,0,1-1.2-.133,12.584,12.584,0,0,0,7.6,2.4" transform="translate(-38 -0.5)" fill="#fff"/>
  </g>
</svg>
